<svg width="46" height="40" viewBox="0 0 46 40" fill="none" xmlns="http://www.w3.org/2000/svg">
<path d="M11.3301 4.51209L8.83013 0.181958L0.169873 5.18196L2.66987 9.51208L11.3301 4.51209ZM18.7052 37.2861C20.0859 39.6775 23.1438 40.4969 25.5353 39.1162C27.9268 37.7355 28.7462 34.6775 27.3654 32.2861L18.7052 37.2861ZM2.66987 9.51208L18.7052 37.2861L27.3654 32.2861L11.3301 4.51209L2.66987 9.51208Z" fill="white"/>
<path d="M43.3799 9.5L45.8799 5.16987L37.2197 0.169873L34.7197 4.5L43.3799 9.5ZM18.6844 32.274C17.3037 34.6654 18.123 37.7234 20.5145 39.1041C22.906 40.4848 25.9639 39.6654 27.3446 37.274L18.6844 32.274ZM34.7197 4.5L18.6844 32.274L27.3446 37.274L43.3799 9.5L34.7197 4.5Z" fill="white"/>
</svg>
